<?xml version="1.0" encoding="utf-8"?>
<!-- Generator: Adobe Illustrator 27.5.0, SVG Export Plug-In . SVG Version: 6.00 Build 0)  -->
<svg version="1.1" xmlns="http://www.w3.org/2000/svg" xmlns:xlink="http://www.w3.org/1999/xlink" x="0px" y="0px"
	 viewBox="0 0 1122 1122" style="enable-background:new 0 0 1122 1122;" xml:space="preserve">
<g id="Bg">
	<rect style="fill:#FFFFFF;" width="1122" height="1122"/>
</g>
<g id="Object">
	<g>
		<path style="fill:#82BFAB;" d="M754.761,660.817c14.186-0.097,27.586,3.196,39.581,8.966
			c16.909-35.423,26.399-75.043,26.399-116.835c0-150.119-122.106-272.194-272.173-272.194
			c-150.067,0-272.173,122.076-272.173,272.194c0,150.076,122.106,272.197,272.173,272.197c45.972,0,89.28-11.502,127.299-31.707
			c-6.682-12.479-10.555-26.678-10.664-41.78c-0.061-8.785,1.198-17.269,3.498-25.325c-33.444,22.659-73.786,35.901-117.216,35.901
			c-115.582,0-209.281-93.71-209.281-209.286c0-115.576,93.698-209.289,209.281-209.289c115.57,0,209.256,93.713,209.256,209.289
			c0,41.244-11.983,79.672-32.584,112.078C736.569,662.363,745.502,660.884,754.761,660.817z"/>
		<path style="fill:#FFFFFF;" d="M544.089,712.595h23.942c7.226,0,13.084-5.837,13.084-13.048v-22.265
			c19.161-2.854,35.877-8.863,50.051-18.15c22.332-14.77,33.795-35.075,34.303-61.05c0.327-16.195-4.151-29.967-13.496-41.26
			c-15.143-18.06-38.781-29.365-70.858-33.852v-45.097c5.628,2.654,11.088,6.21,16.316,10.755c3.219,2.668,6.948,4.036,11.197,4.052
			c3.437,0.018,8.17-2.382,8.17-2.382l0.085-0.04l26.835-16.839c3.668-2.318,5.543-5.281,5.604-8.873
			c0.048-2.887-1.126-5.417-3.51-7.592c-16.74-19.046-38.334-30.859-64.697-35.45v-25.385c0-7.223-5.858-13.088-13.084-13.088
			h-23.942c-7.226,0-13.084,5.865-13.084,13.088v24.72c-12.395,1.719-23.603,4.862-33.565,9.423
			c-32.221,14.667-48.029,36.657-47.484,65.78c0.255,14.341,4.564,27.029,12.903,38.061c14.017,18.792,36.748,30.551,68.146,35.396
			v56.302c-13.569-4.799-26.399-13.716-38.479-26.823c-2.651-3.449-6.185-5.169-10.591-5.169c-2.421,0-7.166,2.082-7.166,2.082
			l-0.072,0.033l-24.426,14.328c-4.176,2.418-6.209,5.638-6.149,9.583c0.048,2.587,1.004,4.884,2.857,6.963
			c6.366,8.869,14.888,17.378,25.588,25.5c17.284,13.299,36.772,21.576,58.439,25.019v22.229
			C531.005,706.758,536.863,712.595,544.089,712.595z M581.116,575.528c12.927,4.079,19.463,11.596,19.379,22.695
			c-0.085,10.307-4.818,18.293-14.125,23.966c-1.658,1.041-3.45,1.922-5.253,2.745V575.528z M515.209,496.183
			c-0.048-8.061,4.588-14.344,13.956-18.816l1.84-0.72v39.979C520.559,512.605,515.294,505.805,515.209,496.183z"/>
		<path style="fill:#616E7D;" d="M515.209,496.183c0.085,9.623,5.35,16.422,15.796,20.444v-39.979l-1.84,0.72
			C519.797,481.839,515.161,488.121,515.209,496.183z"/>
		<path style="fill:#616E7D;" d="M581.116,575.528v49.406c1.803-0.823,3.595-1.704,5.253-2.745
			c9.308-5.674,14.041-13.659,14.125-23.966C600.579,587.124,594.043,579.607,581.116,575.528z"/>
		<path style="fill:#616E7D;" d="M342.205,552.948c0,115.576,93.698,209.286,209.281,209.286c43.43,0,83.772-13.242,117.216-35.901
			c8.291-29.032,30.745-52.181,59.456-61.307c20.601-32.406,32.584-70.833,32.584-112.078c0-115.576-93.686-209.289-209.256-209.289
			C435.903,343.659,342.205,437.372,342.205,552.948z M581.116,396.118v25.385c26.363,4.59,47.957,16.404,64.697,35.45
			c2.384,2.176,3.559,4.706,3.51,7.592c-0.061,3.592-1.937,6.554-5.604,8.873l-26.835,16.839l-0.085,0.04c0,0-4.733,2.4-8.17,2.382
			c-4.249-0.016-7.977-1.383-11.197-4.052c-5.229-4.545-10.688-8.101-16.316-10.755v45.097
			c32.076,4.487,55.715,15.793,70.858,33.852c9.344,11.293,13.823,25.064,13.496,41.26c-0.508,25.975-11.971,46.28-34.303,61.05
			c-14.174,9.287-30.89,15.296-50.051,18.15v22.265c0,7.211-5.858,13.048-13.084,13.048h-23.942
			c-7.226,0-13.084-5.837-13.084-13.048v-22.229c-21.666-3.443-41.154-11.72-58.439-25.019c-10.7-8.122-19.222-16.631-25.588-25.5
			c-1.852-2.079-2.809-4.376-2.857-6.963c-0.06-3.946,1.973-7.165,6.149-9.583l24.426-14.328l0.072-0.033
			c0,0,4.745-2.082,7.166-2.082c4.406,0,7.94,1.719,10.591,5.169c12.08,13.106,24.91,22.023,38.479,26.823v-56.302
			c-31.398-4.845-54.13-16.604-68.146-35.396c-8.34-11.032-12.649-23.721-12.903-38.061c-0.545-29.122,15.263-51.112,47.484-65.78
			c9.962-4.561,21.171-7.704,33.565-9.423v-24.72c0-7.223,5.858-13.088,13.084-13.088h23.942
			C575.258,383.03,581.116,388.895,581.116,396.118z"/>
		<path style="fill:#AAD4C8;" d="M688.249,751.501c0.267,37.036,30.599,66.957,67.638,66.691
			c37.014-0.269,66.936-30.605,66.669-67.656c-0.266-37.023-30.612-66.924-67.638-66.664
			C717.905,684.138,687.983,714.469,688.249,751.501z M802.779,736.71v28.638h-33.081v33.063h-28.627v-33.063h-33.068V736.71h33.068
			v-33.065h28.627v33.065H802.779z"/>
		<path style="fill:#616E7D;" d="M754.761,660.817c-9.259,0.067-18.192,1.546-26.604,4.209
			c-28.711,9.127-51.164,32.276-59.456,61.307c-2.3,8.055-3.558,16.54-3.498,25.325c0.108,15.103,3.982,29.302,10.664,41.78
			c15.312,28.608,45.535,48.042,80.178,47.805c49.736-0.363,89.909-41.118,89.558-90.866c-0.242-35.544-21.194-66.119-51.26-80.595
			C782.347,664.013,768.948,660.72,754.761,660.817z M822.557,750.536c0.266,37.051-29.655,67.386-66.669,67.656
			c-37.039,0.266-67.371-29.655-67.638-66.691c-0.266-37.032,29.655-67.362,66.669-67.629
			C791.945,683.612,822.29,713.513,822.557,750.536z"/>
		<polygon style="fill:#FFFFFF;" points="769.698,798.411 769.698,765.348 802.779,765.348 802.779,736.71 769.698,736.71 
			769.698,703.644 741.071,703.644 741.071,736.71 708.003,736.71 708.003,765.348 741.071,765.348 741.071,798.411 		"/>
	</g>
</g>
</svg>
