<?xml version="1.0" encoding="UTF-8"?>
<svg version="1.1" xmlns="http://www.w3.org/2000/svg" width="512" height="512">
<path d="M0 0 C1.57942543 -0.00258629 3.15885021 -0.00560018 4.7382741 -0.0090034 C9.06751712 -0.01704577 13.39674354 -0.01886143 17.72599316 -0.01960087 C22.39969003 -0.02145626 27.07337839 -0.02900607 31.74707031 -0.03573608 C41.96221996 -0.04930058 52.17736566 -0.05534127 62.39252281 -0.05974674 C68.77548175 -0.06251252 75.15843918 -0.06675049 81.54139709 -0.07125092 C99.22683365 -0.08344143 116.91226899 -0.09374097 134.59770966 -0.09712601 C135.72896642 -0.09734557 136.86022317 -0.09756514 138.02576044 -0.09779136 C139.15966832 -0.09800964 140.2935762 -0.09822791 141.46184492 -0.09845281 C143.7594347 -0.09889627 146.05702448 -0.09934283 148.35461426 -0.09979248 C149.49428935 -0.10001391 150.63396444 -0.10023534 151.80817515 -0.10046348 C170.26527532 -0.10440952 188.72233597 -0.12185862 207.17942089 -0.145152 C226.14588112 -0.16889427 245.11232154 -0.18132918 264.07879686 -0.18249393 C274.72092372 -0.1834091 285.36299907 -0.18912166 296.00511169 -0.20731354 C305.0690228 -0.22275339 314.13286649 -0.22781214 323.19678825 -0.21957543 C327.8164847 -0.21568259 332.43604554 -0.2165314 337.0557251 -0.23063278 C341.29502403 -0.24345404 345.53408659 -0.24210284 349.77338558 -0.23004207 C351.2969765 -0.2280992 352.82058464 -0.23109727 354.34415144 -0.23988643 C376.59591951 -0.35999805 396.71182318 4.58815675 413.25500488 20.26544189 C424.02038363 31.5222502 432.67513535 47.10163591 432.69893265 63.06379032 C432.70277379 64.03472915 432.70661494 65.00566797 432.71057248 66.00602919 C432.709706 67.06496317 432.70883952 68.12389715 432.70794678 69.21492004 C432.71240346 70.91146938 432.71240346 70.91146938 432.71695018 72.64229244 C432.725637 76.44059255 432.72714543 80.23886115 432.7286377 84.03717041 C432.73272856 86.75732102 432.7382701 89.47746832 432.74368286 92.19761658 C432.75725458 99.59458289 432.76328938 106.99154378 432.76769352 114.38852048 C432.77045847 119.01040273 432.77469634 123.6322829 432.77919769 128.25416374 C432.79138991 141.05925776 432.80168862 153.86435011 432.80507278 166.66944981 C432.80529235 167.48875138 432.80551192 168.30805296 432.80573814 169.15218186 C432.80595641 169.97341139 432.80617469 170.79464092 432.80639958 171.64075619 C432.80684304 173.30479531 432.80728961 174.96883442 432.80773926 176.63287354 C432.80796069 177.45828921 432.80818212 178.28370488 432.80841026 179.13413315 C432.81235536 192.49851044 432.82980079 205.86283311 432.85309878 219.22718931 C432.87684392 232.95931841 432.88927611 246.69142014 432.8904407 260.4235701 C432.8913558 268.12909065 432.89706619 275.83454007 432.91526031 283.54004097 C432.9307042 290.10378455 432.93575667 296.66743501 432.92752221 303.23119331 C432.92363047 306.57654225 432.92612322 309.92155237 432.93857956 313.26690292 C432.95132393 316.90378752 432.94540813 320.54019647 432.93499756 324.17707825 C432.94305396 325.22039718 432.95111037 326.26371611 432.95941091 327.33865076 C432.89181113 337.48596564 430.68687055 347.08544207 426.06750488 356.14044189 C425.72711182 356.81196289 425.38671875 357.48348389 425.03601074 358.175354 C416.51812136 374.12531506 401.3874881 385.25440912 384.54016113 391.21075439 C373.82930269 394.30533622 363.08492744 394.2865938 352.03253174 394.27415466 C350.45423015 394.27602482 348.87592903 394.27832635 347.29762864 394.28101999 C342.97625268 394.287119 338.65489612 394.28700663 334.33351684 394.28582561 C329.66671309 394.28562112 324.99991549 394.29114493 320.33311462 394.29588318 C311.19589345 394.30417982 302.05867873 394.30693757 292.9214541 394.30749556 C285.49233576 394.30797117 278.06321954 394.31002821 270.63410187 394.31319618 C249.55885437 394.32199998 228.48361195 394.32661597 207.4083626 394.32586571 C205.70508969 394.32580577 205.70508969 394.32580577 203.96740723 394.32574463 C202.83050132 394.32570375 201.69359541 394.32566287 200.52223781 394.32562075 C182.09874988 394.32521433 163.6752824 394.33478351 145.25180039 394.348883 C126.32261351 394.36325489 107.3934366 394.37015273 88.46424413 394.36928922 C77.84180287 394.36895754 67.21938305 394.37169207 56.59694672 394.38246727 C47.55274629 394.39158295 38.50857701 394.39373873 29.46437398 394.38695785 C24.85317236 394.38369808 20.24203047 394.38361633 15.63083458 394.3923111 C11.4028774 394.40020101 7.17502707 394.39871935 2.94707242 394.39002696 C1.42423952 394.38849745 -0.09860145 394.39028726 -1.62142482 394.39588704 C-21.89142174 394.46543927 -39.52739538 391.3014457 -55.43249512 378.14044189 C-56.27812012 377.48817627 -57.12374512 376.83591064 -57.99499512 376.16387939 C-64.5387221 370.73174706 -68.90990386 363.75841366 -72.74499512 356.26544189 C-73.23286499 355.33103271 -73.23286499 355.33103271 -73.73059082 354.37774658 C-80.01793813 341.55815398 -79.86986369 328.5862735 -79.83654785 314.64630127 C-79.84225772 312.48355762 -79.84922436 310.32081699 -79.85734558 308.15808105 C-79.87521347 302.31569035 -79.87412188 296.47345034 -79.8684032 290.63104057 C-79.86530539 285.74961984 -79.87140963 280.8682278 -79.87744194 275.98681116 C-79.8914615 264.47810108 -79.88994426 252.9694653 -79.87854004 241.46075439 C-79.86703134 229.58397624 -79.88118654 217.70742318 -79.90793651 205.83067465 C-79.93006107 195.62576758 -79.93673911 185.42093135 -79.9308601 175.21600199 C-79.92748519 169.12384038 -79.92994253 163.03182345 -79.94711113 156.93968201 C-79.96252886 151.22022812 -79.95868235 145.50110999 -79.93980598 139.78166962 C-79.93610729 137.68056555 -79.93926559 135.57943686 -79.94969177 133.47835541 C-79.96281424 130.61609879 -79.95143258 127.75496851 -79.93370056 124.89276123 C-79.94330557 124.05658941 -79.95291057 123.22041759 -79.96280664 122.35890722 C-79.91664399 118.75165311 -79.77024358 116.5955516 -77.58866978 113.65592194 C-75.43249512 112.14044189 -75.43249512 112.14044189 -72.43249512 111.14044189 C-72.10249512 105.86044189 -71.77249512 100.58044189 -71.43249512 95.14044189 C-73.08249512 94.81044189 -74.73249512 94.48044189 -76.43249512 94.14044189 C-78.92010331 91.84536566 -79.39206662 90.44679464 -79.83654785 87.07867432 C-79.84629639 85.8963623 -79.85604492 84.71405029 -79.86608887 83.49591064 C-79.88337036 81.53125854 -79.88337036 81.53125854 -79.90100098 79.5269165 C-79.89309693 78.12724246 -79.88271819 76.72758043 -79.86999512 75.32794189 C-79.8666214 74.62347931 -79.86324768 73.91901672 -79.85977173 73.19320679 C-79.7887555 63.02597806 -79.42329043 53.66609024 -75.43249512 44.14044189 C-74.95812012 42.96223877 -74.48374512 41.78403564 -73.99499512 40.57012939 C-66.27765566 23.39162858 -51.89008824 10.87108021 -34.43249512 4.14044189 C-22.99395895 0.31764129 -11.94352202 -0.00783094 0 0 Z " fill="#ffffff3d" transform="translate(79.4324951171875,58.85955810546875)"/>
<path d="M0 0 C56.1 0 112.2 0 170 0 C170.33 14.52 170.66 29.04 171 44 C172.93505799 51.34362856 172.93505799 51.34362856 178 56 C185.26966464 59.52029648 192.67316936 59.44148072 200.59790039 59.43237305 C201.94897346 59.44140568 203.30003838 59.45173655 204.65109253 59.46325684 C208.2930275 59.49067708 211.93480635 59.50009078 215.5768311 59.50611091 C219.39254567 59.51553388 223.2081454 59.54174024 227.02378845 59.56611633 C234.23769833 59.60967761 241.45158578 59.63828809 248.66558689 59.66143972 C258.42201817 59.6936227 268.17831593 59.74907849 277.93464565 59.80318546 C293.28972391 59.88773242 308.6447505 59.94133813 324 60 C324 82.44 324 104.88 324 128 C313.81898438 128.02578125 303.63796875 128.0515625 293.1484375 128.078125 C286.70440775 128.10328686 280.26040802 128.12945129 273.81640625 128.16015625 C263.58480019 128.2087217 253.35329397 128.2531553 243.12158203 128.27099609 C235.67001925 128.28400805 228.21865921 128.31096093 220.7672106 128.35461307 C216.82214769 128.37723831 212.87733493 128.39291006 208.93220139 128.39188385 C205.21711917 128.39113785 201.50259014 128.40906374 197.78765106 128.44116783 C195.77781512 128.45371751 193.76788635 128.4465981 191.75802612 128.43885803 C183.05592355 128.48112933 183.05592355 128.48112933 176 133 C171.19065584 139.23914919 170.85089094 143.9607536 170.84178162 151.64324951 C170.83684364 152.52463097 170.83190566 153.40601243 170.82681805 154.31410241 C170.81143747 157.27287626 170.80308088 160.2316284 170.79467773 163.19042969 C170.78509965 165.30922131 170.77508961 167.42801101 170.76467896 169.54679871 C170.73761626 175.30463044 170.71661405 181.06247039 170.69667697 186.82033062 C170.67482586 192.8354969 170.64743289 198.85063784 170.62062073 204.86578369 C170.57068202 216.2589533 170.52574754 227.65213697 170.48259836 239.0453341 C170.42400982 254.43910746 170.3577166 269.8328475 170.29184818 285.22659111 C170.18825506 309.48437163 170.09497813 333.74218068 170 358 C113.9 358 57.8 358 0 358 C0 239.86 0 121.72 0 0 Z " fill="#ffffff2e" transform="translate(171,77)"/>
<path d="M0 0 C45.21 0 90.42 0 137 0 C137 22.11 137 44.22 137 67 C136 68 136 68 133.75298977 68.12304783 C132.25000631 68.12166514 132.25000631 68.12166514 130.71665955 68.12025452 C129.57095993 68.12162918 128.42526031 68.12300385 127.24484253 68.12442017 C125.97673737 68.12082489 124.7086322 68.11722961 123.40209961 68.11352539 C122.06206769 68.11324352 120.72203561 68.11340125 119.38200378 68.1139679 C115.73340562 68.11425587 112.08484005 68.1083592 108.43624949 68.10139394 C104.62722484 68.09516034 100.8181995 68.0945566 97.00917053 68.09336853 C89.79142246 68.09025523 82.57368946 68.08204186 75.35594803 68.07201904 C67.14084743 68.06085786 58.92574612 68.05534744 50.71063983 68.05032361 C33.80708449 68.03985925 16.90354384 68.02225983 0 68 C-0.0093457 67.14245117 -0.01869141 66.28490234 -0.02832031 65.40136719 C-0.07241291 62.21027321 -0.13406056 59.02013244 -0.20751953 55.82958984 C-0.23569099 54.45048349 -0.25692472 53.07121682 -0.27099609 51.69189453 C-0.29247545 49.70577051 -0.34123132 47.72000091 -0.390625 45.734375 C-0.41157227 44.54038086 -0.43251953 43.34638672 -0.45410156 42.11621094 C-1.10700632 38.38916431 -2.03815615 37.28186204 -5 35 C-6.32 34.34 -7.64 33.68 -9 33 C-9 27.72 -9 22.44 -9 17 C-7.02 16.01 -5.04 15.02 -3 14 C-0.03326123 10.06674136 -0.03326123 10.06674136 0 0 Z " fill="#ffffff2e" transform="translate(17,137)"/>
<path d="M0 0 C45.21 0 90.42 0 137 0 C137 22.44 137 44.88 137 68 C134.39965542 69.30017229 132.54683047 69.10660619 129.6343689 69.08229065 C127.92637871 69.07173141 127.92637871 69.07173141 126.18388367 69.06095886 C124.92872452 69.04801285 123.67356537 69.03506683 122.38037109 69.02172852 C121.06334702 69.01212097 119.74632294 69.00251343 118.38938904 68.99261475 C114.77180662 68.96610972 111.1543046 68.93333516 107.53678465 68.89946485 C103.75848921 68.86514556 99.98015064 68.83655067 96.20181274 68.80735779 C89.04427472 68.75118133 81.88679071 68.68983025 74.72931159 68.62663645 C65.05933041 68.54155721 55.38928599 68.46443806 45.7192421 68.38688183 C30.47943466 68.26444406 15.23973931 68.13134222 0 68 C0 45.56 0 23.12 0 0 Z " fill="#ffffff2e" transform="translate(17,307)"/>
<path d="M0 0 C45.21 0 90.42 0 137 0 C137 22.44 137 44.88 137 68 C91.79 68 46.58 68 0 68 C0 45.56 0 23.12 0 0 Z " fill="#ffffff2e" transform="translate(358,307)"/>
<path d="M0 0 C45.21 0 90.42 0 137 0 C137 22.44 137 44.88 137 68 C91.79 68 46.58 68 0 68 C0 45.56 0 23.12 0 0 Z " fill="#ffffff2e" transform="translate(358,222)"/>
<path d="M0 0 C45.21 0 90.42 0 137 0 C137 22.44 137 44.88 137 68 C91.79 68 46.58 68 0 68 C0 45.56 0 23.12 0 0 Z " fill="#ffffff2e" transform="translate(17,222)"/>
<path d="M0 0 C22.7684341 -0.12032643 22.7684341 -0.12032643 32.52148438 -0.14648438 C39.15982312 -0.16437336 45.79803696 -0.18546877 52.4362793 -0.22631836 C57.79200797 -0.25906713 63.14760257 -0.27688565 68.50342369 -0.28463173 C70.54022009 -0.29014747 72.57700968 -0.30091797 74.61374855 -0.31719017 C92.98311565 -0.45802755 107.8327895 1.4114127 121.6796875 14.62890625 C128.65480483 21.75667767 136 31.44441002 136 42 C91.12 42 46.24 42 0 42 C0 28.14 0 14.28 0 0 Z " fill="#ffffff2e" transform="translate(358,77)"/>
<path d="M0 0 C0.89805862 -0.00014603 1.79611725 -0.00029205 2.72138977 -0.0004425 C5.68106527 0.00025252 8.64067733 0.00802574 11.6003418 0.01586914 C13.65585801 0.01773478 15.71137466 0.01915799 17.76689148 0.02015686 C23.17063632 0.02397057 28.57435418 0.03379109 33.97808838 0.04486084 C40.46509494 0.05690053 46.95211052 0.06148266 53.43912506 0.06731415 C63.28845564 0.07700344 73.13772705 0.09616804 82.98706055 0.11352539 C82.98706055 13.97352539 82.98706055 27.83352539 82.98706055 42.11352539 C80.39570202 43.40920466 78.56166735 43.22022769 75.65939331 43.19581604 C74.52914734 43.18877655 73.39890137 43.18173706 72.23440552 43.17448425 C70.3656929 43.15506523 70.3656929 43.15506523 68.45922852 43.13525391 C66.49832275 43.12084259 66.49832275 43.12084259 64.49780273 43.10614014 C60.9070786 43.07963559 57.31643548 43.04686094 53.72577429 43.01299024 C49.97550628 42.97867048 46.22519482 42.95007589 42.47488403 42.92088318 C35.37046968 42.86470719 28.26610974 42.80335602 21.16175473 42.74016184 C13.07483253 42.66847836 4.98786671 42.60253935 -3.09910798 42.53709137 C-19.73710888 42.4023107 -36.37503984 42.2602884 -53.01293945 42.11352539 C-52.70207765 40.66960754 -52.388482 39.22627807 -52.07373047 37.78320312 C-51.8993898 36.97938705 -51.72504913 36.17557098 -51.54542542 35.34739685 C-48.80974546 23.8707424 -39.83177104 14.52797118 -30.6105957 7.64868164 C-21.07078359 2.01086787 -10.88495866 -0.04646186 0 0 Z " fill="#ffffff2e" transform="translate(71.012939453125,76.886474609375)"/>
<path d="M0 0 C1.49192194 0.00138269 1.49192194 0.00138269 3.01398373 0.00279331 C4.15126919 0.00141865 5.28855465 0.00004398 6.46030331 -0.00137234 C7.71905773 0.00222294 8.97781216 0.00581821 10.27471066 0.00952244 C11.59158871 0.00937641 12.90846676 0.00923038 14.26525021 0.00907993 C17.88698982 0.00879196 21.5086966 0.01468859 25.13042855 0.02165389 C28.91142598 0.02788753 32.69242409 0.02849124 36.47342587 0.0296793 C43.63805004 0.03279258 50.80265904 0.04100594 57.96727651 0.05102879 C66.12191876 0.06219001 74.27656171 0.0677004 82.43120968 0.07272422 C99.21035107 0.08318855 115.98947717 0.10078794 132.76860714 0.12304783 C132.45774534 1.56696568 132.14414968 3.01029515 131.82939816 4.45337009 C131.65505749 5.25718616 131.48071682 6.06100224 131.3010931 6.88917637 C128.56470078 18.36881929 119.58679167 27.69985073 110.37016964 34.58789158 C103.29557257 38.7625412 94.04739578 42.25450565 85.75694942 42.24330235 C84.96893444 42.24467701 84.18091946 42.24605167 83.36902523 42.24746799 C82.51378765 42.24387272 81.65855007 42.24027744 80.7773962 42.23657322 C79.86973003 42.23671925 78.96206387 42.23686527 78.02689266 42.23701572 C75.02931477 42.23631954 72.03179916 42.22854085 69.03423214 42.22070408 C66.95486644 42.21883886 64.87550029 42.21741544 62.796134 42.21641636 C57.32497092 42.2125994 51.85383442 42.20277609 46.38268185 42.19171238 C40.79908768 42.18148064 35.21548923 42.17691496 29.63188839 42.17187595 C18.67744964 42.16115311 7.7230306 42.1440865 -3.23139286 42.12304783 C-3.25603924 36.3023316 -3.27422716 30.48164549 -3.2863245 24.66088963 C-3.29136553 22.67911341 -3.29819824 20.69734094 -3.30683231 18.71557713 C-3.31890801 15.87352674 -3.32462331 13.03152536 -3.32904911 10.18945408 C-3.3342104 9.29779041 -3.33937168 8.40612675 -3.34468937 7.48744297 C-3.34488463 5.36564182 -3.29349316 3.24394003 -3.23139286 1.12304783 C-2.23139286 0.12304783 -2.23139286 0.12304783 0 0 Z " fill="#ffffff2e" transform="translate(361.2313928604126,392.8769521713257)"/>
<path d="M0 0 C44.88 0 89.76 0 136 0 C136 13.86 136 27.72 136 42 C113.31178352 42.16043524 113.31178352 42.16043524 103.57617188 42.1953125 C96.95551592 42.21914376 90.33508307 42.24721364 83.71459961 42.30175781 C78.3718186 42.34549558 73.02927714 42.36919574 67.6863308 42.37950897 C65.65675274 42.38685049 63.62718651 42.40118558 61.59771156 42.42292023 C50.31434805 42.53885843 40.5832627 42.32545969 30 38 C29.25611526 37.71972961 28.51223053 37.43945923 27.74580383 37.1506958 C19.23214386 33.79290468 9.0196492 24.22340447 5 16 C0 3.59776536 0 3.59776536 0 0 Z " fill="#ffffff2e" transform="translate(18,393)"/>
</svg>
