<?xml version="1.0" encoding="utf-8"?>
<!-- Generator: Adobe Illustrator 27.5.0, SVG Export Plug-In . SVG Version: 6.00 Build 0)  -->
<svg version="1.1" xmlns="http://www.w3.org/2000/svg" xmlns:xlink="http://www.w3.org/1999/xlink" x="0px" y="0px"
	 viewBox="0 0 2200 2200" style="enable-background:new 0 0 2200 2200;" xml:space="preserve">
<g id="background">
	<rect style="fill:#FFFFFF;" width="2200" height="2200"/>
</g>
<g id="Objects">
	<g>
		<path style="fill:#1D2A30;" d="M637.689,546.769L637.689,546.769c36.043,0,65.262-29.219,65.262-65.262V293.22
			c0-36.043-29.219-65.262-65.262-65.262h0c-36.043,0-65.262,29.219-65.262,65.262v188.287
			C572.427,517.55,601.646,546.769,637.689,546.769z"/>
		<path style="fill:#1D2A30;" d="M1260.185,546.769L1260.185,546.769c36.043,0,65.262-29.219,65.262-65.262V293.22
			c0-36.043-29.219-65.262-65.262-65.262l0,0c-36.043,0-65.262,29.219-65.262,65.262v188.287
			C1194.923,517.55,1224.142,546.769,1260.185,546.769z"/>
		<path style="fill:#1D2A30;" d="M730.297,846.52H553.041c-14.82,0-26.834,12.014-26.834,26.834v105.658
			c0,14.82,12.014,26.834,26.834,26.834h177.256c14.82,0,26.834-12.014,26.834-26.834V873.354
			C757.131,858.534,745.117,846.52,730.297,846.52z"/>
		<path style="fill:#1D2A30;" d="M860.309,1005.846h177.256c14.82,0,26.834-12.014,26.834-26.834V873.354
			c0-14.82-12.014-26.834-26.834-26.834H860.309c-14.82,0-26.834,12.014-26.834,26.834v105.658
			C833.475,993.832,845.489,1005.846,860.309,1005.846z"/>
		<path style="fill:#1D2A30;" d="M1167.577,1005.846h177.256c14.82,0,26.834-12.014,26.834-26.834V873.354
			c0-14.82-12.014-26.834-26.834-26.834h-177.256c-14.82,0-26.834,12.014-26.834,26.834v105.658
			C1140.743,993.832,1152.757,1005.846,1167.577,1005.846z"/>
		<path style="fill:#1D2A30;" d="M730.297,1056.411H553.041c-14.82,0-26.834,12.014-26.834,26.834v105.658
			c0,14.82,12.014,26.834,26.834,26.834h177.256c14.82,0,26.834-12.014,26.834-26.834v-105.658
			C757.131,1068.425,745.117,1056.411,730.297,1056.411z"/>
		<path style="fill:#1D2A30;" d="M860.309,1215.736h177.256c14.82,0,26.834-12.014,26.834-26.834v-105.658
			c0-14.82-12.014-26.834-26.834-26.834H860.309c-14.82,0-26.834,12.014-26.834,26.834v105.658
			C833.475,1203.722,845.489,1215.736,860.309,1215.736z"/>
		<path style="fill:#1D2A30;" d="M730.297,1266.301H553.041c-14.82,0-26.834,12.014-26.834,26.834v105.658
			c0,14.82,12.014,26.834,26.834,26.834h177.256c14.82,0,26.834-12.014,26.834-26.834v-105.658
			C757.131,1278.315,745.117,1266.301,730.297,1266.301z"/>
		<path style="fill:#1D2A30;" d="M1544.572,1120.178v-637.12c0-52.86-42.84-95.69-95.69-95.69h-100.77v94.14
			c0,48.48-39.44,87.92-87.93,87.92c-48.48,0-87.92-39.44-87.92-87.92v-94.14h-446.65v94.14c0,48.48-39.44,87.92-87.92,87.92
			c-48.49,0-87.92-39.44-87.92-87.92v-94.14h-100.78c-52.85,0-95.69,42.83-95.69,95.69v956.82c0,52.85,42.84,95.7,95.69,95.7
			h524.775c0.001,241.052,195.413,436.463,436.466,436.463c241.053,0,436.466-195.412,436.466-436.466
			C1846.698,1341.395,1719.892,1176.835,1544.572,1120.178z M413.732,1439.878v-642.88h1070.41v308.352
			c-24.025-4.098-48.716-6.24-73.909-6.24c-12.998,0-25.862,0.571-38.571,1.684v-17.546c0-14.82-12.01-26.84-26.83-26.84h-177.26
			c-14.82,0-26.83,12.02-26.83,26.84v105.65c0,1.073,0.076,2.127,0.198,3.167c-31.047,24.373-58.702,52.868-82.154,84.655
			c-4.91-6.338-12.589-10.423-21.224-10.423h-177.25c-14.82,0-26.84,12.02-26.84,26.84v105.65c0,14.82,12.02,26.84,26.84,26.84
			h127.425c-4.194,16.162-7.486,32.687-9.818,49.52H448.992C429.552,1475.148,413.732,1459.328,413.732,1439.878z
			 M1676.434,1801.777c-34.593,34.593-74.86,61.746-119.682,80.704c-46.374,19.615-95.67,29.56-146.519,29.56
			c-50.849,0-100.145-9.946-146.519-29.56c-44.822-18.958-85.089-46.111-119.682-80.704
			c-34.593-34.594-61.746-74.861-80.704-119.683c-19.615-46.374-29.56-95.67-29.56-146.519s9.945-100.145,29.56-146.519
			c18.958-44.822,46.111-85.089,80.704-119.682c34.594-34.593,74.86-61.746,119.682-80.704c46.374-19.615,95.67-29.56,146.519-29.56
			c50.849,0,100.145,9.945,146.519,29.56c44.822,18.958,85.089,46.111,119.682,80.704c34.593,34.593,61.746,74.86,80.704,119.682
			c19.614,46.374,29.56,95.67,29.56,146.519s-9.945,100.145-29.56,146.519C1738.18,1726.917,1711.027,1767.184,1676.434,1801.777z"
			/>
		<path style="fill:#1D2A30;" d="M1410.233,1580.074c74.359,0,134.639-60.28,134.639-134.639v-64.553
			c0-74.359-60.28-127.834-134.639-127.834s-134.639,53.475-134.639,127.834v64.553
			C1275.594,1519.795,1335.874,1580.074,1410.233,1580.074z"/>
		<path style="fill:#1D2A30;" d="M1502.072,1597.278c-27.22,15.05-58.53,23.61-91.84,23.61c-31.72,0-61.62-7.77-87.91-21.5
			c-63.33,19.672-115.861,58.78-147.856,108.959c-11.447,17.953-9.127,41.517,5.913,56.588c0.081,0.081,0.162,0.162,0.243,0.243
			c29.84,29.84,64.57,53.26,103.23,69.61c40,16.92,82.52,25.5,126.38,25.5c43.86,0,86.38-8.58,126.38-25.5
			c38.66-16.35,73.39-39.77,103.23-69.61c2.588-2.588,5.127-5.212,7.618-7.873c14.707-15.711,16.374-39.605,4.03-57.233
			C1617.871,1652.064,1564.998,1615.161,1502.072,1597.278z"/>
	</g>
</g>
</svg>
