<?xml version="1.0" encoding="UTF-8"?>
<svg version="1.1" xmlns="http://www.w3.org/2000/svg" width="512" height="512">
<path d="M0 0 C0.9029631 0.0028299 1.80592621 0.00565979 2.73625183 0.00857544 C5.60946109 0.01973643 8.4823543 0.04483353 11.35546875 0.0703125 C13.30793819 0.08034757 15.26041254 0.0894725 17.21289062 0.09765625 C21.98970441 0.11966242 26.76628306 0.15416419 31.54296875 0.1953125 C33.81719148 8.9820384 35.7879463 17.81237682 37.63745117 26.69702148 C37.93326917 28.10941932 38.22928011 29.52177675 38.52546692 30.93409729 C39.32096401 34.73064133 40.11342635 38.5278123 40.90502334 42.32517123 C41.40050953 44.70134295 41.89666869 47.07737314 42.39306068 49.45335579 C44.12670136 57.7515186 45.85785713 66.05019529 47.58666992 74.34936523 C49.19600225 82.07463639 50.81085836 89.79873905 52.42823905 97.52232879 C53.82038068 104.171535 55.20868007 110.82153586 56.5939911 117.47216851 C57.41992764 121.43701488 58.24741371 125.40152217 59.07878685 129.36523247 C59.85887345 133.08507445 60.6341748 136.80588189 61.40580559 140.5274868 C61.6894837 141.89159729 61.97486491 143.2553549 62.26208115 144.61872482 C62.65408979 146.48084698 63.03933224 148.34438969 63.42424011 150.20799255 C63.7502409 151.77055865 63.7502409 151.77055865 64.08282757 153.36469173 C64.54296875 156.1953125 64.54296875 156.1953125 64.54296875 161.1953125 C51.67296875 161.1953125 38.80296875 161.1953125 25.54296875 161.1953125 C23.89296875 153.6053125 22.24296875 146.0153125 20.54296875 138.1953125 C3.38296875 138.1953125 -13.77703125 138.1953125 -31.45703125 138.1953125 C-34.09703125 145.4553125 -36.73703125 152.7153125 -39.45703125 160.1953125 C-40.45703125 161.1953125 -40.45703125 161.1953125 -42.24769592 161.31556702 C-43.02713058 161.31334641 -43.80656525 161.31112579 -44.60961914 161.30883789 C-45.4904567 161.30876236 -46.37129425 161.30868683 -47.27882385 161.30860901 C-48.23610886 161.30344772 -49.19339386 161.29828644 -50.1796875 161.29296875 C-51.15489853 161.2915538 -52.13010956 161.29013885 -53.13487244 161.28868103 C-56.26312268 161.28306383 -59.39130248 161.27050843 -62.51953125 161.2578125 C-64.63476459 161.25279972 -66.74999906 161.24823643 -68.86523438 161.24414062 C-74.06252421 161.23308881 -79.2597727 161.21633396 -84.45703125 161.1953125 C-80.32349556 149.81259108 -75.77724776 138.64223346 -71.02874756 127.5032959 C-68.92427202 122.56533998 -66.83191309 117.62224843 -64.73828125 112.6796875 C-64.0862825 111.14142303 -64.0862825 111.14142303 -63.42111206 109.57208252 C-59.10522351 99.38182051 -54.83873337 89.17122112 -50.58563232 78.95462036 C-49.3347553 75.95185166 -48.08096299 72.9503137 -46.82666016 69.94897461 C-43.1250924 61.08156975 -39.44647303 52.20717779 -35.86978149 43.2885437 C-34.35091336 39.50299544 -32.81948835 35.72257923 -31.28765869 31.94226074 C-30.57838084 30.18030319 -29.87579667 28.41563326 -29.18060303 26.64807129 C-21.00953322 5.87481156 -21.00953322 5.87481156 -12.30883789 0.98901367 C-8.18954433 -0.15744839 -4.2550992 -0.05042782 0 0 Z M0.54296875 47.1953125 C-2.06658807 54.34846646 -4.67443051 61.50224337 -7.28005981 68.65682888 C-8.48989312 71.9786425 -9.70032545 75.3002353 -10.91210938 78.62133789 C-12.3038485 82.4357191 -13.69301299 86.25103338 -15.08203125 90.06640625 C-15.51950684 91.26430283 -15.95698242 92.4621994 -16.40771484 93.69639587 C-16.80812988 94.7974617 -17.20854492 95.89852753 -17.62109375 97.03295898 C-18.15404053 98.4952317 -18.15404053 98.4952317 -18.69775391 99.98704529 C-19.51122305 101.96373046 -19.51122305 101.96373046 -19.45703125 103.1953125 C-8.56703125 103.1953125 2.32296875 103.1953125 13.54296875 103.1953125 C12.70977888 96.48050219 12.70977888 96.48050219 11.51147461 89.88085938 C11.31134262 88.92046753 11.11121063 87.96007568 10.90501404 86.97058105 C10.58464928 85.45760437 10.58464928 85.45760437 10.2578125 83.9140625 C10.037267 82.85997192 9.8167215 81.80588135 9.5894928 80.71984863 C8.88950125 77.37769548 8.18505485 74.03649973 7.48046875 70.6953125 C7.00295991 68.41933277 6.52574329 66.14329171 6.04882812 63.8671875 C4.88358901 58.30918165 3.71469814 52.75195349 2.54296875 47.1953125 C1.88296875 47.1953125 1.22296875 47.1953125 0.54296875 47.1953125 Z " fill="#FEFEFE" transform="translate(447.45703125,175.8046875)"/>
<path d="M0 0 C0.71881348 -0.0065712 1.43762695 -0.0131424 2.17822266 -0.01991272 C4.56925554 -0.03970211 6.96022524 -0.05132495 9.35131836 -0.0612793 C10.57612821 -0.06739259 10.57612821 -0.06739259 11.82568169 -0.07362938 C16.15315373 -0.09452096 20.48059384 -0.10880537 24.80810547 -0.11816406 C29.26798604 -0.12919385 33.72736286 -0.16354462 38.18706608 -0.20333576 C41.62303049 -0.22956238 45.05887648 -0.23786157 48.49493217 -0.24144554 C50.13788669 -0.24630131 51.78083627 -0.25788643 53.4236927 -0.27648354 C71.15549802 -0.46461786 71.15549802 -0.46461786 78.94116211 6.80200195 C85.40721719 15.56703021 85.98966667 29.30309333 87.92163086 39.74731445 C88.27559337 41.63883179 88.63003736 43.53025909 88.98493958 45.42160034 C89.91197116 50.36898714 90.83250991 55.31755997 91.75164795 60.26641846 C92.69302092 65.32849921 93.64060381 70.38941694 94.58764648 75.45043945 C96.44069101 85.35817257 98.28687029 95.26717131 100.12866211 105.17700195 C100.77166045 103.90327332 101.41324908 102.62883298 102.054245 101.35409546 C102.41168132 100.64446844 102.76911764 99.93484142 103.13738537 99.20371056 C104.34577256 96.73311015 105.36374633 94.22596714 106.33569336 91.65356445 C106.95166382 90.04010132 106.95166382 90.04010132 107.58007812 88.39404297 C108.02923584 87.20866943 108.47839355 86.0232959 108.94116211 84.80200195 C109.98384447 82.07251985 111.03189027 79.34512276 112.08178711 76.6184082 C112.52513145 75.46697578 112.52513145 75.46697578 112.97743225 74.2922821 C118.71567625 59.43744857 124.64565386 44.65627124 130.52934074 29.85857677 C131.28278048 27.96338658 132.03593325 26.0680826 132.78900146 24.17274475 C133.72147576 21.82628439 134.65466065 19.48010624 135.58868408 17.13426208 C136.01059021 16.07272415 136.43249634 15.01118622 136.8671875 13.91748047 C137.23292374 12.99838394 137.59865997 12.07928741 137.97547913 11.13233948 C139.39512518 7.4941196 140.75738958 3.83372869 142.12866211 0.17700195 C156.97866211 0.17700195 171.82866211 0.17700195 187.12866211 0.17700195 C174.3257968 32.59716089 160.63312522 64.65211929 147.05615234 96.75366211 C143.27315409 105.70209122 139.50338641 114.65563348 135.77319336 123.6262207 C135.25717308 124.86706673 135.25717308 124.86706673 134.73072815 126.13298035 C133.12875206 129.98737785 131.529662 133.84294389 129.93457031 137.70019531 C120.97400209 159.33166197 120.97400209 159.33166197 119.12866211 161.17700195 C117.74706096 161.26978525 116.36078173 161.29447238 114.97607422 161.29052734 C114.09523666 161.29045181 113.21439911 161.29037628 112.30686951 161.29029846 C111.3495845 161.28513718 110.3922995 161.27997589 109.40600586 161.2746582 C108.43079483 161.27324326 107.4555838 161.27182831 106.45082092 161.27037048 C103.32257068 161.26475328 100.19439088 161.25219788 97.06616211 161.23950195 C94.95092876 161.23448917 92.8356943 161.22992588 90.72045898 161.22583008 C85.52316915 161.21477827 80.32592066 161.19802342 75.12866211 161.17700195 C73.19796747 153.81483157 71.26861475 146.45231029 69.34065533 139.08942318 C68.38852007 135.45321892 67.43611675 131.8170854 66.48306274 128.18112183 C62.32663412 112.32229414 58.18721769 96.45960895 54.13138962 80.57471466 C53.58242811 78.42527532 53.0326405 76.27604901 52.48257446 74.12689209 C52.12370641 72.72449034 51.7648501 71.32208558 51.40600586 69.91967773 C51.23103765 69.23592827 51.05606945 68.5521788 50.87579918 67.84770966 C49.84517062 63.81728114 48.8207906 59.78532531 47.80081463 55.75218868 C47.01291336 52.64377738 46.21647345 49.53755056 45.42163086 46.4309082 C45.00852913 44.78338814 45.00852913 44.78338814 44.58708191 43.10258484 C41.35527954 29.23325115 41.35527954 29.23325115 32.12866211 19.17700195 C19.70808583 12.86592262 5.59327455 9.50162119 -7.87133789 6.17700195 C-7.91405889 4.5108829 -7.91197621 2.8431731 -7.87133789 1.17700195 C-5.96105363 -0.7332823 -2.5306622 0.01907507 0 0 Z " fill="#FEFEFE" transform="translate(7.871337890625,175.822998046875)"/>
<path d="M0 0 C-0.79002989 3.97949341 -1.58232385 7.95853292 -2.375 11.9375 C-2.59671875 13.05447266 -2.8184375 14.17144531 -3.046875 15.32226562 C-3.48541991 17.52143938 -3.92773056 19.71986596 -4.37402344 21.91748047 C-4.77116442 23.87313647 -5.16075118 25.83035399 -5.54003906 27.78955078 C-5.96209827 29.87382949 -6.4716027 31.94010971 -7 34 C-9 35 -9 35 -12.01953125 34.07421875 C-13.28505343 33.6152727 -14.54929969 33.15279867 -15.8125 32.6875 C-30.62311537 27.51019614 -45.46775873 25.63547946 -60.171875 31.9296875 C-63.12478126 33.65852578 -63.85073978 35.85465624 -65 39 C-65 42.95626549 -64.45805488 44.48978229 -61.8046875 47.4453125 C-59.03128016 49.97150805 -56.33161487 51.87466023 -53.125 53.8125 C-52.5683667 54.15087891 -52.0117334 54.48925781 -51.43823242 54.83789062 C-47.77323333 57.03516394 -44.0356636 59.04916482 -40.23803711 61.00634766 C-26.17824279 68.26175058 -13.97439459 77.43042596 -9 93 C-8.67 93.99 -8.34 94.98 -8 96 C-6.88327371 111.63416812 -9.80389973 125.45678983 -20.2578125 137.62890625 C-34.31685075 152.41513613 -53.92649786 158.46182443 -73.98828125 159.21484375 C-83.19384896 159.43706973 -92.2539429 159.11294747 -101.375 157.8125 C-102.10920166 157.71171143 -102.84340332 157.61092285 -103.59985352 157.50708008 C-111.62123967 156.20652779 -119.2931235 153.5108349 -127 151 C-126.02500231 146.19375893 -125.04632648 141.38828735 -124.06420898 136.58349609 C-123.73050935 134.94828671 -123.39782221 133.31287037 -123.06616211 131.67724609 C-122.58972897 129.32855177 -122.10967958 126.98062171 -121.62890625 124.6328125 C-121.4069735 123.53273361 -121.4069735 123.53273361 -121.18055725 122.41043091 C-120.11387171 117.22774341 -120.11387171 117.22774341 -119 115 C-117.7625 115.4125 -116.525 115.825 -115.25 116.25 C-114.425 116.52199219 -113.6 116.79398437 -112.75 117.07421875 C-110.88837744 117.70092975 -109.0341927 118.35010515 -107.1875 119.01953125 C-92.4184303 124.26333658 -75.98202904 126.77176528 -61 121 C-57.08960124 119.09191386 -54.64758414 117.09649329 -53 113 C-52.42455529 108.91817887 -53.01200426 105.45750975 -55.33984375 102.0234375 C-61.23651849 96.16293868 -68.85371518 92.79326862 -76.18310547 89.07568359 C-89.32283102 82.37887257 -102.66455974 73.69560628 -108.0078125 59.28125 C-111.42607922 47.57907563 -110.01048799 36.05032095 -105 25 C-95.64240936 8.79256013 -81.24823445 -0.12261161 -63.42578125 -4.97265625 C-42.36888959 -9.62551515 -20.03201131 -7.9535517 0 0 Z " fill="#FEFEFE" transform="translate(374,180)"/>
<path d="M0 0 C13.86 0 27.72 0 42 0 C38.52650532 18.3703867 34.81005109 36.67448345 30.90487885 54.95722723 C30.45013339 57.08699311 29.9961432 59.21691865 29.54239464 61.34689713 C27.95418429 68.80214754 26.36330733 76.25682279 24.76977539 83.7109375 C23.29066575 90.6301737 21.81769859 97.55069914 20.34741193 104.47181499 C19.07475604 110.46129695 17.79789766 116.44987285 16.51774806 122.43775761 C15.75731838 125.99500499 14.9985787 129.55259176 14.24411964 133.11111069 C13.40818638 137.05309657 12.5635276 140.99316259 11.71801758 144.93310547 C11.47124268 146.10282394 11.22446777 147.27254242 10.97021484 148.47770691 C10.739095 149.54788559 10.50797516 150.61806427 10.26985168 151.72067261 C10.07170774 152.6492552 9.87356379 153.57783779 9.66941547 154.53455925 C9 157 9 157 7 161 C-6.86 161 -20.72 161 -35 161 C-27.34043134 125.10144031 -27.34043134 125.10144031 -23.84814453 108.74975586 C-23.63256268 107.74035163 -23.41698082 106.7309474 -23.19486618 105.69095516 C-22.31606784 101.57630182 -21.43724629 97.46165344 -20.55834961 93.3470211 C-18.06265559 81.66315019 -15.56847931 69.97895994 -13.07878971 58.29380798 C-11.66958583 51.6801818 -10.25860567 45.06693645 -8.84612179 38.45401001 C-8.03025804 34.63392789 -7.21537571 30.8136422 -6.40280151 26.99285889 C-5.64724627 23.44025849 -4.88920193 19.88819888 -4.1291523 16.33655739 C-3.72259613 14.43347996 -3.31876952 12.52982006 -2.9150238 10.62614441 C-2.67542435 9.50887466 -2.43582489 8.39160492 -2.18896484 7.24047852 C-1.98201996 6.26981949 -1.77507507 5.29916046 -1.56185913 4.29908752 C-1 2 -1 2 0 0 Z " fill="#FEFFFE" transform="translate(212,176)"/>
</svg>
